<svg xmlns="http://www.w3.org/2000/svg" xmlns:xlink="http://www.w3.org/1999/xlink" width="1080" zoomAndPan="magnify" viewBox="0 0 810 809.999993" height="1080" preserveAspectRatio="xMidYMid meet" version="1.0"><defs><g/><clipPath id="81ae1d2eb2"><path d="M 378 105 L 529 105 L 529 256 L 378 256 Z M 378 105 " clip-rule="nonzero"/></clipPath><clipPath id="813caf370a"><path d="M 435.105469 75.605469 L 557.902344 161.75 L 471.757812 284.546875 L 348.960938 198.402344 Z M 435.105469 75.605469 " clip-rule="nonzero"/></clipPath><clipPath id="1148e677e6"><path d="M 435.105469 75.605469 L 557.902344 161.75 L 471.757812 284.546875 L 348.960938 198.402344 Z M 435.105469 75.605469 " clip-rule="nonzero"/></clipPath><clipPath id="4a2fe16f8f"><path d="M 435.105469 75.605469 L 557.902344 161.75 L 471.757812 284.546875 L 348.960938 198.402344 Z M 435.105469 75.605469 " clip-rule="nonzero"/></clipPath><clipPath id="9f143da25c"><path d="M 421 129 L 461 129 L 461 168 L 421 168 Z M 421 129 " clip-rule="nonzero"/></clipPath><clipPath id="bf7c687cc9"><path d="M 435.105469 75.605469 L 557.902344 161.75 L 471.757812 284.546875 L 348.960938 198.402344 Z M 435.105469 75.605469 " clip-rule="nonzero"/></clipPath><clipPath id="2019f0cc38"><path d="M 435.105469 75.605469 L 557.902344 161.75 L 471.757812 284.546875 L 348.960938 198.402344 Z M 435.105469 75.605469 " clip-rule="nonzero"/></clipPath><clipPath id="6fdc6bcea2"><path d="M 435.105469 75.605469 L 557.902344 161.75 L 471.757812 284.546875 L 348.960938 198.402344 Z M 435.105469 75.605469 " clip-rule="nonzero"/></clipPath><clipPath id="ab4091305a"><path d="M 467 161 L 507 161 L 507 201 L 467 201 Z M 467 161 " clip-rule="nonzero"/></clipPath><clipPath id="58d6a85738"><path d="M 435.105469 75.605469 L 557.902344 161.75 L 471.757812 284.546875 L 348.960938 198.402344 Z M 435.105469 75.605469 " clip-rule="nonzero"/></clipPath><clipPath id="f3b52cf150"><path d="M 435.105469 75.605469 L 557.902344 161.75 L 471.757812 284.546875 L 348.960938 198.402344 Z M 435.105469 75.605469 " clip-rule="nonzero"/></clipPath><clipPath id="45a3dc4cdc"><path d="M 435.105469 75.605469 L 557.902344 161.75 L 471.757812 284.546875 L 348.960938 198.402344 Z M 435.105469 75.605469 " clip-rule="nonzero"/></clipPath><clipPath id="98501b4811"><path d="M 403 177 L 471 177 L 471 229 L 403 229 Z M 403 177 " clip-rule="nonzero"/></clipPath><clipPath id="dabe799610"><path d="M 435.105469 75.605469 L 557.902344 161.75 L 471.757812 284.546875 L 348.960938 198.402344 Z M 435.105469 75.605469 " clip-rule="nonzero"/></clipPath><clipPath id="25ea8c78b0"><path d="M 435.105469 75.605469 L 557.902344 161.75 L 471.757812 284.546875 L 348.960938 198.402344 Z M 435.105469 75.605469 " clip-rule="nonzero"/></clipPath><clipPath id="fc2c700e8a"><path d="M 435.105469 75.605469 L 557.902344 161.75 L 471.757812 284.546875 L 348.960938 198.402344 Z M 435.105469 75.605469 " clip-rule="nonzero"/></clipPath><clipPath id="c74e04d9eb"><path d="M 554.085938 657.957031 L 706.335938 657.957031 L 706.335938 779.457031 L 554.085938 779.457031 Z M 554.085938 657.957031 " clip-rule="nonzero"/></clipPath><clipPath id="4cb43e7a8b"><path d="M 24.9375 474.441406 L 334.6875 474.441406 L 334.6875 784.191406 L 24.9375 784.191406 Z M 24.9375 474.441406 " clip-rule="nonzero"/></clipPath><clipPath id="471925c74c"><path d="M 24.9375 474.441406 L 334.6875 474.441406 L 334.6875 784.191406 L 24.9375 784.191406 Z M 24.9375 474.441406 " clip-rule="nonzero"/></clipPath><clipPath id="6c589a587d"><path d="M 24.9375 474.441406 L 334.6875 474.441406 L 334.6875 784.191406 L 24.9375 784.191406 Z M 24.9375 474.441406 " clip-rule="nonzero"/></clipPath><clipPath id="0460f46434"><path d="M 88.941406 479.9375 L 329.871094 479.9375 L 329.871094 629.394531 L 88.941406 629.394531 Z M 88.941406 479.9375 " clip-rule="nonzero"/></clipPath><clipPath id="238cc4ca49"><path d="M 117.785156 297.097656 L 780.785156 297.097656 L 780.785156 602.347656 L 117.785156 602.347656 Z M 117.785156 297.097656 " clip-rule="nonzero"/></clipPath><clipPath id="79d57537f2"><path d="M 117.785156 297.097656 L 780.785156 297.097656 L 780.785156 602.347656 L 117.785156 602.347656 Z M 117.785156 297.097656 " clip-rule="nonzero"/></clipPath><clipPath id="a218881634"><path d="M 117.785156 297.097656 L 780.785156 297.097656 L 780.785156 602.347656 L 117.785156 602.347656 Z M 117.785156 297.097656 " clip-rule="nonzero"/></clipPath><clipPath id="d03a728636"><path d="M 637.59375 448.71875 L 699.84375 448.71875 L 699.84375 510.96875 L 637.59375 510.96875 Z M 637.59375 448.71875 " clip-rule="nonzero"/></clipPath><clipPath id="ecf73fea7e"><path d="M 528.183594 708.246094 L 550.925781 708.246094 L 550.925781 730.988281 L 528.183594 730.988281 Z M 528.183594 708.246094 " clip-rule="nonzero"/></clipPath><clipPath id="5ca88fe72b"><path d="M 539.554688 708.246094 C 533.273438 708.246094 528.183594 713.335938 528.183594 719.617188 C 528.183594 725.898438 533.273438 730.988281 539.554688 730.988281 C 545.835938 730.988281 550.925781 725.898438 550.925781 719.617188 C 550.925781 713.335938 545.835938 708.246094 539.554688 708.246094 Z M 539.554688 708.246094 " clip-rule="nonzero"/></clipPath><clipPath id="d18d492ca0"><path d="M 708.9375 168.734375 L 731.679688 168.734375 L 731.679688 191.476562 L 708.9375 191.476562 Z M 708.9375 168.734375 " clip-rule="nonzero"/></clipPath><clipPath id="465ebb44c0"><path d="M 720.308594 168.734375 C 714.027344 168.734375 708.9375 173.824219 708.9375 180.105469 C 708.9375 186.382812 714.027344 191.476562 720.308594 191.476562 C 726.589844 191.476562 731.679688 186.382812 731.679688 180.105469 C 731.679688 173.824219 726.589844 168.734375 720.308594 168.734375 Z M 720.308594 168.734375 " clip-rule="nonzero"/></clipPath><clipPath id="457228af75"><path d="M 258.859375 78.304688 L 281.601562 78.304688 L 281.601562 101.046875 L 258.859375 101.046875 Z M 258.859375 78.304688 " clip-rule="nonzero"/></clipPath><clipPath id="818879f04b"><path d="M 270.230469 78.304688 C 263.953125 78.304688 258.859375 83.394531 258.859375 89.675781 C 258.859375 95.953125 263.953125 101.046875 270.230469 101.046875 C 276.511719 101.046875 281.601562 95.953125 281.601562 89.675781 C 281.601562 83.394531 276.511719 78.304688 270.230469 78.304688 Z M 270.230469 78.304688 " clip-rule="nonzero"/></clipPath><clipPath id="2b11f10dda"><path d="M 78.777344 258.855469 L 101.519531 258.855469 L 101.519531 281.597656 L 78.777344 281.597656 Z M 78.777344 258.855469 " clip-rule="nonzero"/></clipPath><clipPath id="f486690dc1"><path d="M 90.148438 258.855469 C 83.867188 258.855469 78.777344 263.945312 78.777344 270.226562 C 78.777344 276.507812 83.867188 281.597656 90.148438 281.597656 C 96.425781 281.597656 101.519531 276.507812 101.519531 270.226562 C 101.519531 263.945312 96.425781 258.855469 90.148438 258.855469 Z M 90.148438 258.855469 " clip-rule="nonzero"/></clipPath></defs><rect x="-81" width="972" fill="#ffffff" y="-80.999999" height="971.999992" fill-opacity="1"/><rect x="-81" width="972" fill="#1d1d1b" y="-80.999999" height="971.999992" fill-opacity="1"/><rect x="-81" width="972" fill="#ffeb00" y="-80.999999" height="971.999992" fill-opacity="1"/><path fill="#1d1d1b" d="M 810 91.5 L 810 88.5 L 721.5 88.5 L 721.5 0 L 718.5 0 L 718.5 88.5 L 637.351562 88.5 C 636.75 85.574219 634.425781 83.25 631.5 82.648438 L 631.5 0 L 628.5 0 L 628.5 82.648438 C 625.574219 83.25 623.25 85.574219 622.648438 88.5 L 541.5 88.5 L 541.5 0 L 538.5 0 L 538.5 88.5 L 457.351562 88.5 C 456.75 85.574219 454.425781 83.25 451.5 82.648438 L 451.5 0 L 448.5 0 L 448.5 82.648438 C 445.574219 83.25 443.25 85.574219 442.648438 88.5 L 361.5 88.5 L 361.5 0 L 358.5 0 L 358.5 88.5 L 277.351562 88.5 C 276.75 85.574219 274.425781 83.25 271.5 82.648438 L 271.5 0 L 268.5 0 L 268.5 82.648438 C 265.574219 83.25 263.25 85.574219 262.648438 88.5 L 181.5 88.5 L 181.5 0 L 178.5 0 L 178.5 88.5 L 97.351562 88.5 C 96.75 85.574219 94.425781 83.25 91.5 82.648438 L 91.5 0 L 88.5 0 L 88.5 82.648438 C 85.574219 83.25 83.25 85.574219 82.648438 88.5 L 0 88.5 L 0 91.5 L 82.648438 91.5 C 83.25 94.425781 85.574219 96.75 88.5 97.351562 L 88.5 178.5 L 0 178.5 L 0 181.5 L 88.5 181.5 L 88.5 262.648438 C 85.574219 263.25 83.25 265.574219 82.648438 268.5 L 0 268.5 L 0 271.5 L 82.648438 271.5 C 83.25 274.425781 85.574219 276.75 88.5 277.351562 L 88.5 358.5 L 0 358.5 L 0 361.5 L 88.5 361.5 L 88.5 442.648438 C 85.574219 443.25 83.25 445.574219 82.648438 448.5 L 0 448.5 L 0 451.5 L 82.648438 451.5 C 83.25 454.425781 85.574219 456.75 88.5 457.351562 L 88.5 538.5 L 0 538.5 L 0 541.5 L 88.5 541.5 L 88.5 622.648438 C 85.574219 623.25 83.25 625.574219 82.648438 628.5 L 0 628.5 L 0 631.5 L 82.648438 631.5 C 83.25 634.425781 85.574219 636.75 88.5 637.351562 L 88.5 718.5 L 0 718.5 L 0 721.5 L 88.5 721.5 L 88.5 810 L 91.5 810 L 91.5 721.5 L 172.648438 721.5 C 173.25 724.425781 175.574219 726.75 178.5 727.351562 L 178.5 810 L 181.5 810 L 181.5 727.351562 C 184.425781 726.75 186.75 724.425781 187.351562 721.5 L 268.5 721.5 L 268.5 810 L 271.5 810 L 271.5 721.5 L 352.648438 721.5 C 353.25 724.425781 355.574219 726.75 358.5 727.351562 L 358.5 810 L 361.5 810 L 361.5 727.351562 C 364.425781 726.75 366.75 724.425781 367.351562 721.5 L 448.5 721.5 L 448.5 810 L 451.5 810 L 451.5 721.5 L 532.648438 721.5 C 533.25 724.425781 535.574219 726.75 538.5 727.351562 L 538.5 810 L 541.5 810 L 541.5 727.351562 C 544.425781 726.75 546.75 724.425781 547.351562 721.5 L 628.5 721.5 L 628.5 810 L 631.5 810 L 631.5 721.5 L 712.648438 721.5 C 713.25 724.425781 715.574219 726.75 718.5 727.351562 L 718.5 810 L 721.5 810 L 721.5 727.351562 C 724.425781 726.75 726.75 724.425781 727.351562 721.5 L 810 721.5 L 810 718.5 L 727.351562 718.5 C 726.75 715.574219 724.425781 713.25 721.5 712.648438 L 721.5 631.5 L 810 631.5 L 810 628.5 L 721.5 628.5 L 721.5 547.351562 C 724.425781 546.75 726.75 544.425781 727.351562 541.5 L 810 541.5 L 810 538.5 L 727.351562 538.5 C 726.75 535.574219 724.425781 533.25 721.5 532.648438 L 721.5 451.5 L 810 451.5 L 810 448.5 L 721.5 448.5 L 721.5 367.351562 C 724.425781 366.75 726.75 364.425781 727.351562 361.5 L 810 361.5 L 810 358.5 L 727.351562 358.5 C 726.75 355.574219 724.425781 353.25 721.5 352.648438 L 721.5 271.5 L 810 271.5 L 810 268.5 L 721.5 268.5 L 721.5 187.351562 C 724.425781 186.75 726.75 184.425781 727.351562 181.5 L 810 181.5 L 810 178.5 L 727.351562 178.5 C 726.75 175.574219 724.425781 173.25 721.5 172.648438 L 721.5 91.5 Z M 718.5 172.648438 C 715.574219 173.25 713.25 175.574219 712.648438 178.5 L 631.5 178.5 L 631.5 97.351562 C 634.425781 96.75 636.75 94.425781 637.351562 91.5 L 718.5 91.5 Z M 637.351562 628.5 C 636.75 625.574219 634.425781 623.25 631.5 622.648438 L 631.5 541.5 L 712.648438 541.5 C 713.25 544.425781 715.574219 546.75 718.5 547.351562 L 718.5 628.5 Z M 622.648438 628.5 L 541.5 628.5 L 541.5 547.351562 C 544.425781 546.75 546.75 544.425781 547.351562 541.5 L 628.5 541.5 L 628.5 622.648438 C 625.574219 623.25 623.25 625.574219 622.648438 628.5 Z M 457.351562 628.5 C 456.75 625.574219 454.425781 623.25 451.5 622.648438 L 451.5 541.5 L 532.648438 541.5 C 533.25 544.425781 535.574219 546.75 538.5 547.351562 L 538.5 628.5 Z M 442.648438 628.5 L 361.5 628.5 L 361.5 547.351562 C 364.425781 546.75 366.75 544.425781 367.351562 541.5 L 448.5 541.5 L 448.5 622.648438 C 445.574219 623.25 443.25 625.574219 442.648438 628.5 Z M 277.351562 628.5 C 276.75 625.574219 274.425781 623.25 271.5 622.648438 L 271.5 541.5 L 352.648438 541.5 C 353.25 544.425781 355.574219 546.75 358.5 547.351562 L 358.5 628.5 Z M 262.648438 628.5 L 181.5 628.5 L 181.5 547.351562 C 184.425781 546.75 186.75 544.425781 187.351562 541.5 L 268.5 541.5 L 268.5 622.648438 C 265.574219 623.25 263.25 625.574219 262.648438 628.5 Z M 97.351562 628.5 C 96.75 625.574219 94.425781 623.25 91.5 622.648438 L 91.5 541.5 L 172.648438 541.5 C 173.25 544.425781 175.574219 546.75 178.5 547.351562 L 178.5 628.5 Z M 172.648438 181.5 C 173.25 184.425781 175.574219 186.75 178.5 187.351562 L 178.5 268.5 L 97.351562 268.5 C 96.75 265.574219 94.425781 263.25 91.5 262.648438 L 91.5 181.5 Z M 187.351562 181.5 L 268.5 181.5 L 268.5 262.648438 C 265.574219 263.25 263.25 265.574219 262.648438 268.5 L 181.5 268.5 L 181.5 187.351562 C 184.425781 186.75 186.75 184.425781 187.351562 181.5 Z M 352.648438 181.5 C 353.25 184.425781 355.574219 186.75 358.5 187.351562 L 358.5 268.5 L 277.351562 268.5 C 276.75 265.574219 274.425781 263.25 271.5 262.648438 L 271.5 181.5 Z M 367.351562 181.5 L 448.5 181.5 L 448.5 262.648438 C 445.574219 263.25 443.25 265.574219 442.648438 268.5 L 361.5 268.5 L 361.5 187.351562 C 364.425781 186.75 366.75 184.425781 367.351562 181.5 Z M 532.648438 181.5 C 533.25 184.425781 535.574219 186.75 538.5 187.351562 L 538.5 268.5 L 457.351562 268.5 C 456.75 265.574219 454.425781 263.25 451.5 262.648438 L 451.5 181.5 Z M 547.351562 181.5 L 628.5 181.5 L 628.5 262.648438 C 625.574219 263.25 623.25 265.574219 622.648438 268.5 L 541.5 268.5 L 541.5 187.351562 C 544.425781 186.75 546.75 184.425781 547.351562 181.5 Z M 547.351562 538.5 C 546.75 535.574219 544.425781 533.25 541.5 532.648438 L 541.5 451.5 L 622.648438 451.5 C 623.25 454.425781 625.574219 456.75 628.5 457.351562 L 628.5 538.5 Z M 532.648438 538.5 L 451.5 538.5 L 451.5 457.351562 C 454.425781 456.75 456.75 454.425781 457.351562 451.5 L 538.5 451.5 L 538.5 532.648438 C 535.574219 533.25 533.25 535.574219 532.648438 538.5 Z M 367.351562 538.5 C 366.75 535.574219 364.425781 533.25 361.5 532.648438 L 361.5 451.5 L 442.648438 451.5 C 443.25 454.425781 445.574219 456.75 448.5 457.351562 L 448.5 538.5 Z M 352.648438 538.5 L 271.5 538.5 L 271.5 457.351562 C 274.425781 456.75 276.75 454.425781 277.351562 451.5 L 358.5 451.5 L 358.5 532.648438 C 355.574219 533.25 353.25 535.574219 352.648438 538.5 Z M 187.351562 538.5 C 186.75 535.574219 184.425781 533.25 181.5 532.648438 L 181.5 451.5 L 262.648438 451.5 C 263.25 454.425781 265.574219 456.75 268.5 457.351562 L 268.5 538.5 Z M 262.648438 271.5 C 263.25 274.425781 265.574219 276.75 268.5 277.351562 L 268.5 358.5 L 187.351562 358.5 C 186.75 355.574219 184.425781 353.25 181.5 352.648438 L 181.5 271.5 Z M 277.351562 271.5 L 358.5 271.5 L 358.5 352.648438 C 355.574219 353.25 353.25 355.574219 352.648438 358.5 L 271.5 358.5 L 271.5 277.351562 C 274.425781 276.75 276.75 274.425781 277.351562 271.5 Z M 442.648438 271.5 C 443.25 274.425781 445.574219 276.75 448.5 277.351562 L 448.5 358.5 L 367.351562 358.5 C 366.75 355.574219 364.425781 353.25 361.5 352.648438 L 361.5 271.5 Z M 457.351562 271.5 L 538.5 271.5 L 538.5 352.648438 C 535.574219 353.25 533.25 355.574219 532.648438 358.5 L 451.5 358.5 L 451.5 277.351562 C 454.425781 276.75 456.75 274.425781 457.351562 271.5 Z M 622.648438 271.5 C 623.25 274.425781 625.574219 276.75 628.5 277.351562 L 628.5 358.5 L 547.351562 358.5 C 546.75 355.574219 544.425781 353.25 541.5 352.648438 L 541.5 271.5 Z M 622.648438 448.5 L 541.5 448.5 L 541.5 367.351562 C 544.425781 366.75 546.75 364.425781 547.351562 361.5 L 628.5 361.5 L 628.5 442.648438 C 625.574219 443.25 623.25 445.574219 622.648438 448.5 Z M 457.351562 448.5 C 456.75 445.574219 454.425781 443.25 451.5 442.648438 L 451.5 361.5 L 532.648438 361.5 C 533.25 364.425781 535.574219 366.75 538.5 367.351562 L 538.5 448.5 Z M 442.648438 448.5 L 361.5 448.5 L 361.5 367.351562 C 364.425781 366.75 366.75 364.425781 367.351562 361.5 L 448.5 361.5 L 448.5 442.648438 C 445.574219 443.25 443.25 445.574219 442.648438 448.5 Z M 277.351562 448.5 C 276.75 445.574219 274.425781 443.25 271.5 442.648438 L 271.5 361.5 L 352.648438 361.5 C 353.25 364.425781 355.574219 366.75 358.5 367.351562 L 358.5 448.5 Z M 262.648438 448.5 L 181.5 448.5 L 181.5 367.351562 C 184.425781 366.75 186.75 364.425781 187.351562 361.5 L 268.5 361.5 L 268.5 442.648438 C 265.574219 443.25 263.25 445.574219 262.648438 448.5 Z M 97.351562 271.5 L 178.5 271.5 L 178.5 352.648438 C 175.574219 353.25 173.25 355.574219 172.648438 358.5 L 91.5 358.5 L 91.5 277.351562 C 94.425781 276.75 96.75 274.425781 97.351562 271.5 Z M 172.648438 361.5 C 173.25 364.425781 175.574219 366.75 178.5 367.351562 L 178.5 448.5 L 97.351562 448.5 C 96.75 445.574219 94.425781 443.25 91.5 442.648438 L 91.5 361.5 Z M 97.351562 451.5 L 178.5 451.5 L 178.5 532.648438 C 175.574219 533.25 173.25 535.574219 172.648438 538.5 L 91.5 538.5 L 91.5 457.351562 C 94.425781 456.75 96.75 454.425781 97.351562 451.5 Z M 712.648438 538.5 L 631.5 538.5 L 631.5 457.351562 C 634.425781 456.75 636.75 454.425781 637.351562 451.5 L 718.5 451.5 L 718.5 532.648438 C 715.574219 533.25 713.25 535.574219 712.648438 538.5 Z M 637.351562 448.5 C 636.75 445.574219 634.425781 443.25 631.5 442.648438 L 631.5 361.5 L 712.648438 361.5 C 713.25 364.425781 715.574219 366.75 718.5 367.351562 L 718.5 448.5 Z M 712.648438 358.5 L 631.5 358.5 L 631.5 277.351562 C 634.425781 276.75 636.75 274.425781 637.351562 271.5 L 718.5 271.5 L 718.5 352.648438 C 715.574219 353.25 713.25 355.574219 712.648438 358.5 Z M 637.351562 268.5 C 636.75 265.574219 634.425781 263.25 631.5 262.648438 L 631.5 181.5 L 712.648438 181.5 C 713.25 184.425781 715.574219 186.75 718.5 187.351562 L 718.5 268.5 Z M 622.648438 91.5 C 623.25 94.425781 625.574219 96.75 628.5 97.351562 L 628.5 178.5 L 547.351562 178.5 C 546.75 175.574219 544.425781 173.25 541.5 172.648438 L 541.5 91.5 Z M 538.5 172.648438 C 535.574219 173.25 533.25 175.574219 532.648438 178.5 L 451.5 178.5 L 451.5 97.351562 C 454.425781 96.75 456.75 94.425781 457.351562 91.5 L 538.5 91.5 Z M 442.648438 91.5 C 443.25 94.425781 445.574219 96.75 448.5 97.351562 L 448.5 178.5 L 367.351562 178.5 C 366.75 175.574219 364.425781 173.25 361.5 172.648438 L 361.5 91.5 Z M 358.5 172.648438 C 355.574219 173.25 353.25 175.574219 352.648438 178.5 L 271.5 178.5 L 271.5 97.351562 C 274.425781 96.75 276.75 94.425781 277.351562 91.5 L 358.5 91.5 Z M 262.648438 91.5 C 263.25 94.425781 265.574219 96.75 268.5 97.351562 L 268.5 178.5 L 187.351562 178.5 C 186.75 175.574219 184.425781 173.25 181.5 172.648438 L 181.5 91.5 Z M 178.5 172.648438 C 175.574219 173.25 173.25 175.574219 172.648438 178.5 L 91.5 178.5 L 91.5 97.351562 C 94.425781 96.75 96.75 94.425781 97.351562 91.5 L 178.5 91.5 Z M 91.5 637.351562 C 94.425781 636.75 96.75 634.425781 97.351562 631.5 L 178.5 631.5 L 178.5 712.648438 C 175.574219 713.25 173.25 715.574219 172.648438 718.5 L 91.5 718.5 Z M 187.351562 718.5 C 186.75 715.574219 184.425781 713.25 181.5 712.648438 L 181.5 631.5 L 262.648438 631.5 C 263.25 634.425781 265.574219 636.75 268.5 637.351562 L 268.5 718.5 Z M 271.5 637.351562 C 274.425781 636.75 276.75 634.425781 277.351562 631.5 L 358.5 631.5 L 358.5 712.648438 C 355.574219 713.25 353.25 715.574219 352.648438 718.5 L 271.5 718.5 Z M 367.351562 718.5 C 366.75 715.574219 364.425781 713.25 361.5 712.648438 L 361.5 631.5 L 442.648438 631.5 C 443.25 634.425781 445.574219 636.75 448.5 637.351562 L 448.5 718.5 Z M 451.5 637.351562 C 454.425781 636.75 456.75 634.425781 457.351562 631.5 L 538.5 631.5 L 538.5 712.648438 C 535.574219 713.25 533.25 715.574219 532.648438 718.5 L 451.5 718.5 Z M 547.351562 718.5 C 546.75 715.574219 544.425781 713.25 541.5 712.648438 L 541.5 631.5 L 622.648438 631.5 C 623.25 634.425781 625.574219 636.75 628.5 637.351562 L 628.5 718.5 Z M 631.5 637.351562 C 634.425781 636.75 636.75 634.425781 637.351562 631.5 L 718.5 631.5 L 718.5 712.648438 C 715.574219 713.25 713.25 715.574219 712.648438 718.5 L 631.5 718.5 Z M 631.5 637.351562 " fill-opacity="1" fill-rule="evenodd"/><g clip-path="url(#81ae1d2eb2)"><g clip-path="url(#813caf370a)"><g clip-path="url(#1148e677e6)"><g clip-path="url(#4a2fe16f8f)"><path fill="#0373ff" d="M 522.722656 208.765625 C 522.253906 209.898438 521.757812 211.019531 521.230469 212.128906 C 520.707031 213.242188 520.15625 214.335938 519.578125 215.417969 C 519 216.5 518.394531 217.570312 517.765625 218.621094 C 517.132812 219.675781 516.476562 220.710938 515.796875 221.734375 C 515.113281 222.753906 514.40625 223.757812 513.675781 224.742188 C 512.945312 225.730469 512.191406 226.695312 511.410156 227.644531 C 510.632812 228.59375 509.832031 229.523438 509.007812 230.433594 C 508.183594 231.34375 507.339844 232.230469 506.46875 233.101562 C 505.601562 233.96875 504.714844 234.8125 503.804688 235.640625 C 502.894531 236.464844 501.964844 237.265625 501.019531 238.042969 C 500.070312 238.824219 499.101562 239.578125 498.117188 240.308594 C 497.128906 241.039062 496.128906 241.746094 495.105469 242.429688 C 494.085938 243.113281 493.050781 243.769531 491.996094 244.398438 C 490.945312 245.03125 489.878906 245.636719 488.792969 246.214844 C 487.710938 246.792969 486.617188 247.34375 485.507812 247.871094 C 484.398438 248.394531 483.277344 248.894531 482.140625 249.363281 C 481.007812 249.832031 479.863281 250.273438 478.707031 250.6875 C 477.550781 251.101562 476.386719 251.488281 475.210938 251.84375 C 474.039062 252.199219 472.855469 252.527344 471.664062 252.824219 C 470.472656 253.125 469.277344 253.394531 468.074219 253.632812 C 466.871094 253.875 465.660156 254.082031 464.445312 254.261719 C 463.230469 254.445312 462.015625 254.59375 460.792969 254.714844 C 459.570312 254.835938 458.347656 254.925781 457.121094 254.988281 C 455.894531 255.046875 454.667969 255.078125 453.441406 255.078125 C 452.214844 255.078125 450.988281 255.046875 449.761719 254.988281 C 448.535156 254.929688 447.3125 254.835938 446.089844 254.71875 C 444.867188 254.597656 443.652344 254.449219 442.4375 254.269531 C 441.222656 254.089844 440.011719 253.878906 438.808594 253.640625 C 437.605469 253.398438 436.410156 253.132812 435.21875 252.832031 C 434.027344 252.535156 432.84375 252.207031 431.667969 251.851562 C 430.496094 251.496094 429.328125 251.113281 428.175781 250.699219 C 427.019531 250.285156 425.875 249.84375 424.738281 249.375 C 423.605469 248.90625 422.484375 248.40625 421.375 247.882812 C 420.265625 247.359375 419.167969 246.808594 418.085938 246.230469 C 417.003906 245.648438 415.933594 245.046875 414.882812 244.414062 C 413.828125 243.785156 412.792969 243.128906 411.769531 242.445312 C 410.75 241.765625 409.746094 241.058594 408.761719 240.328125 C 407.773438 239.597656 406.808594 238.839844 405.859375 238.0625 C 404.910156 237.285156 403.980469 236.484375 403.070312 235.660156 C 402.160156 234.835938 401.273438 233.988281 400.40625 233.121094 C 399.535156 232.253906 398.691406 231.363281 397.867188 230.457031 C 397.039062 229.546875 396.238281 228.617188 395.460938 227.667969 C 394.679688 226.71875 393.925781 225.753906 393.195312 224.765625 C 392.464844 223.78125 391.757812 222.777344 391.074219 221.757812 C 390.394531 220.738281 389.734375 219.699219 389.105469 218.648438 C 388.472656 217.59375 387.867188 216.527344 387.289062 215.445312 C 386.710938 214.363281 386.160156 213.265625 385.632812 212.15625 C 385.109375 211.046875 384.613281 209.925781 384.140625 208.792969 C 383.671875 207.660156 383.230469 206.515625 382.816406 205.359375 C 382.402344 204.203125 382.015625 203.039062 381.660156 201.863281 C 381.304688 200.6875 380.976562 199.507812 380.679688 198.316406 C 380.378906 197.125 380.109375 195.925781 379.871094 194.722656 C 379.632812 193.519531 379.421875 192.3125 379.242188 191.097656 C 379.058594 189.882812 378.910156 188.664062 378.789062 187.445312 C 378.667969 186.222656 378.578125 185 378.519531 183.773438 C 378.457031 182.546875 378.425781 181.320312 378.425781 180.09375 C 378.425781 178.863281 378.457031 177.636719 378.515625 176.414062 C 378.578125 175.1875 378.667969 173.960938 378.785156 172.742188 C 378.90625 171.519531 379.054688 170.300781 379.234375 169.085938 C 379.417969 167.875 379.625 166.664062 379.863281 165.460938 C 380.105469 164.257812 380.371094 163.058594 380.671875 161.867188 C 380.96875 160.679688 381.296875 159.496094 381.652344 158.320312 C 382.007812 157.144531 382.394531 155.980469 382.804688 154.824219 C 383.21875 153.667969 383.660156 152.523438 384.128906 151.390625 C 384.597656 150.257812 385.097656 149.132812 385.621094 148.023438 C 386.144531 146.914062 386.695312 145.820312 387.277344 144.734375 C 387.855469 143.652344 388.457031 142.585938 389.089844 141.53125 C 389.71875 140.480469 390.375 139.441406 391.058594 138.421875 C 391.738281 137.402344 392.445312 136.398438 393.175781 135.410156 C 393.910156 134.425781 394.664062 133.457031 395.441406 132.507812 C 396.21875 131.5625 397.019531 130.632812 397.84375 129.722656 C 398.667969 128.8125 399.515625 127.921875 400.382812 127.054688 C 401.25 126.1875 402.140625 125.339844 403.046875 124.515625 C 403.957031 123.691406 404.886719 122.890625 405.835938 122.109375 C 406.785156 121.332031 407.75 120.578125 408.738281 119.847656 C 409.722656 119.113281 410.726562 118.40625 411.746094 117.726562 C 412.765625 117.042969 413.804688 116.386719 414.855469 115.753906 C 415.910156 115.125 416.976562 114.519531 418.058594 113.941406 C 419.140625 113.363281 420.238281 112.808594 421.347656 112.285156 C 422.457031 111.757812 423.578125 111.261719 424.710938 110.792969 C 425.84375 110.324219 426.992188 109.878906 428.144531 109.464844 C 429.300781 109.054688 430.464844 108.667969 431.640625 108.3125 C 432.816406 107.953125 434 107.628906 435.1875 107.328125 C 436.378906 107.03125 437.578125 106.761719 438.78125 106.519531 C 439.984375 106.28125 441.191406 106.070312 442.40625 105.890625 C 443.621094 105.710938 444.839844 105.5625 446.0625 105.441406 C 447.28125 105.320312 448.503906 105.230469 449.730469 105.167969 C 450.957031 105.109375 452.183594 105.078125 453.410156 105.078125 C 454.640625 105.078125 455.867188 105.105469 457.09375 105.167969 C 458.316406 105.226562 459.542969 105.316406 460.761719 105.4375 C 461.984375 105.558594 463.203125 105.707031 464.417969 105.886719 C 465.632812 106.066406 466.839844 106.277344 468.042969 106.515625 C 469.246094 106.753906 470.445312 107.023438 471.636719 107.320312 C 472.828125 107.621094 474.007812 107.945312 475.183594 108.300781 C 476.359375 108.660156 477.523438 109.042969 478.679688 109.457031 C 479.835938 109.871094 480.980469 110.3125 482.113281 110.78125 C 483.25 111.25 484.371094 111.746094 485.480469 112.273438 C 486.589844 112.796875 487.6875 113.347656 488.769531 113.925781 C 489.851562 114.503906 490.917969 115.109375 491.972656 115.738281 C 493.023438 116.371094 494.0625 117.027344 495.082031 117.707031 C 496.101562 118.390625 497.105469 119.097656 498.09375 119.828125 C 499.078125 120.558594 500.046875 121.3125 500.996094 122.09375 C 501.945312 122.871094 502.871094 123.671875 503.78125 124.496094 C 504.691406 125.320312 505.582031 126.167969 506.449219 127.035156 C 507.316406 127.902344 508.164062 128.789062 508.988281 129.699219 C 509.8125 130.609375 510.613281 131.539062 511.394531 132.488281 C 512.171875 133.433594 512.925781 134.402344 513.660156 135.386719 C 514.390625 136.375 515.097656 137.375 515.777344 138.398438 C 516.460938 139.417969 517.117188 140.453125 517.75 141.507812 C 518.378906 142.558594 518.984375 143.628906 519.5625 144.710938 C 520.144531 145.792969 520.695312 146.886719 521.21875 147.996094 C 521.746094 149.105469 522.242188 150.226562 522.710938 151.363281 C 523.183594 152.496094 523.625 153.640625 524.039062 154.796875 C 524.453125 155.953125 524.835938 157.117188 525.191406 158.292969 C 525.550781 159.464844 525.878906 160.648438 526.175781 161.839844 C 526.472656 163.03125 526.742188 164.226562 526.984375 165.429688 C 527.222656 166.636719 527.433594 167.84375 527.613281 169.058594 C 527.792969 170.273438 527.945312 171.488281 528.0625 172.710938 C 528.183594 173.933594 528.273438 175.15625 528.335938 176.382812 C 528.394531 177.609375 528.425781 178.835938 528.425781 180.0625 C 528.425781 181.289062 528.398438 182.515625 528.335938 183.742188 C 528.277344 184.96875 528.1875 186.191406 528.066406 187.414062 C 527.945312 188.636719 527.796875 189.851562 527.617188 191.066406 C 527.4375 192.28125 527.226562 193.492188 526.988281 194.695312 C 526.75 195.898438 526.480469 197.097656 526.183594 198.285156 C 525.882812 199.476562 525.558594 200.660156 525.203125 201.835938 C 524.84375 203.007812 524.460938 204.175781 524.046875 205.332031 C 523.632812 206.484375 523.191406 207.628906 522.722656 208.765625 Z M 522.722656 208.765625 " fill-opacity="1" fill-rule="nonzero"/></g></g></g></g><g clip-path="url(#9f143da25c)"><g clip-path="url(#bf7c687cc9)"><g clip-path="url(#2019f0cc38)"><g clip-path="url(#6fdc6bcea2)"><path fill="#1d1d1b" d="M 460.449219 149.921875 L 458.839844 140.746094 L 444.988281 143.136719 L 442.523438 129.300781 L 433.34375 130.910156 L 435.734375 144.757812 L 421.898438 147.222656 L 423.511719 156.402344 L 437.359375 154.011719 L 439.824219 167.847656 L 449.003906 166.238281 L 446.613281 152.390625 Z M 460.449219 149.921875 " fill-opacity="1" fill-rule="evenodd"/></g></g></g></g><g clip-path="url(#ab4091305a)"><g clip-path="url(#58d6a85738)"><g clip-path="url(#f3b52cf150)"><g clip-path="url(#45a3dc4cdc)"><path fill="#1d1d1b" d="M 506.496094 182.226562 L 504.886719 173.050781 L 491.039062 175.441406 L 488.574219 161.605469 L 479.394531 163.214844 L 481.785156 177.0625 L 467.949219 179.527344 L 469.558594 188.707031 L 483.40625 186.316406 L 485.875 200.152344 L 495.050781 198.542969 L 492.660156 184.691406 Z M 506.496094 182.226562 " fill-opacity="1" fill-rule="evenodd"/></g></g></g></g><g clip-path="url(#98501b4811)"><g clip-path="url(#dabe799610)"><g clip-path="url(#25ea8c78b0)"><g clip-path="url(#fc2c700e8a)"><path fill="#1d1d1b" d="M 409.257812 177.75 L 470.65625 220.820312 L 465.269531 228.496094 L 403.871094 185.421875 Z M 409.257812 177.75 " fill-opacity="1" fill-rule="evenodd"/></g></g></g></g><g clip-path="url(#c74e04d9eb)"><path fill="#1d1d1b" d="M 630.210938 657.960938 L 554.085938 779.453125 L 706.335938 779.453125 Z M 630.210938 657.960938 " fill-opacity="1" fill-rule="evenodd"/></g><path fill="#f3f3f1" d="M 622.597656 695.929688 L 622.597656 733.894531 L 637.824219 733.894531 L 637.824219 695.929688 Z M 630.210938 749.082031 C 626.023438 749.082031 622.597656 752.5 622.597656 756.675781 C 622.597656 760.851562 626.023438 764.269531 630.210938 764.269531 C 634.398438 764.269531 637.824219 760.851562 637.824219 756.675781 C 637.824219 752.5 634.398438 749.082031 630.210938 749.082031 Z M 630.210938 749.082031 " fill-opacity="1" fill-rule="evenodd"/><path stroke-linecap="butt" transform="matrix(0.755488, 0, 0, 0.755488, 24.938215, 474.442124)" fill-opacity="1" fill="#f3f3f1" fill-rule="evenodd" stroke-linejoin="miter" d="M 4.998928 4.998924 L 404.999208 4.998924 L 404.999208 404.999203 L 4.998928 404.999203 Z M 4.998928 4.998924 " stroke="#1d1d1b" stroke-width="6" stroke-opacity="1" stroke-miterlimit="100"/><path stroke-linecap="butt" transform="matrix(0.755488, 0, 0, 0.755488, 24.938215, 474.442124)" fill="none" stroke-linejoin="miter" d="M 4.998928 85.002082 L 404.999208 85.002082 " stroke="#1d1d1b" stroke-width="6" stroke-opacity="1" stroke-miterlimit="100"/><path fill="#1d1d1b" d="M 58.933594 500.882812 C 54.78125 500.882812 51.378906 504.285156 51.378906 508.4375 C 51.378906 512.59375 54.78125 515.992188 58.933594 515.992188 C 63.089844 515.992188 66.488281 512.59375 66.488281 508.4375 C 66.488281 504.285156 63.089844 500.882812 58.933594 500.882812 Z M 58.933594 500.882812 " fill-opacity="1" fill-rule="evenodd"/><g clip-path="url(#4cb43e7a8b)"><path stroke-linecap="butt" transform="matrix(0.755488, 0, 0, 0.755488, 24.938215, 474.442124)" fill="none" stroke-linejoin="miter" d="M 44.997922 34.998169 C 39.50168 34.998169 34.998174 39.501676 34.998174 44.997918 C 34.998174 50.499331 39.50168 54.997666 44.997922 54.997666 C 50.499335 54.997666 54.997671 50.499331 54.997671 44.997918 C 54.997671 39.501676 50.499335 34.998169 44.997922 34.998169 Z M 44.997922 34.998169 " stroke="#1d1d1b" stroke-width="6" stroke-opacity="1" stroke-miterlimit="100"/></g><path fill="#1d1d1b" d="M 89.15625 500.882812 C 85 500.882812 81.601562 504.285156 81.601562 508.4375 C 81.601562 512.59375 85 515.992188 89.15625 515.992188 C 93.308594 515.992188 96.710938 512.59375 96.710938 508.4375 C 96.710938 504.285156 93.308594 500.882812 89.15625 500.882812 Z M 89.15625 500.882812 " fill-opacity="1" fill-rule="evenodd"/><g clip-path="url(#471925c74c)"><path stroke-linecap="butt" transform="matrix(0.755488, 0, 0, 0.755488, 24.938215, 474.442124)" fill="none" stroke-linejoin="miter" d="M 85.002087 34.998169 C 79.500674 34.998169 75.002338 39.501676 75.002338 44.997918 C 75.002338 50.499331 79.500674 54.997666 85.002087 54.997666 C 90.498329 54.997666 95.001835 50.499331 95.001835 44.997918 C 95.001835 39.501676 90.498329 34.998169 85.002087 34.998169 Z M 85.002087 34.998169 " stroke="#1d1d1b" stroke-width="6" stroke-opacity="1" stroke-miterlimit="100"/></g><path fill="#1d1d1b" d="M 119.375 500.882812 C 115.21875 500.882812 111.820312 504.285156 111.820312 508.4375 C 111.820312 512.59375 115.21875 515.992188 119.375 515.992188 C 123.53125 515.992188 126.929688 512.59375 126.929688 508.4375 C 126.929688 504.285156 123.53125 500.882812 119.375 500.882812 Z M 119.375 500.882812 " fill-opacity="1" fill-rule="evenodd"/><g clip-path="url(#6c589a587d)"><path stroke-linecap="butt" transform="matrix(0.755488, 0, 0, 0.755488, 24.938215, 474.442124)" fill="none" stroke-linejoin="miter" d="M 125.00108 34.998169 C 119.499668 34.998169 115.001332 39.501676 115.001332 44.997918 C 115.001332 50.499331 119.499668 54.997666 125.00108 54.997666 C 130.502493 54.997666 135.000829 50.499331 135.000829 44.997918 C 135.000829 39.501676 130.502493 34.998169 125.00108 34.998169 Z M 125.00108 34.998169 " stroke="#1d1d1b" stroke-width="6" stroke-opacity="1" stroke-miterlimit="100"/></g><path fill="#1d1d1b" d="M 249.542969 610.882812 L 221.667969 583.003906 L 179.8125 624.859375 L 137.960938 583.003906 L 110.082031 610.882812 L 151.9375 652.738281 L 110.082031 694.589844 L 137.960938 722.46875 L 179.8125 680.613281 L 221.667969 722.46875 L 249.542969 694.589844 L 207.691406 652.738281 Z M 249.542969 610.882812 " fill-opacity="1" fill-rule="evenodd"/><g clip-path="url(#0460f46434)"><path fill="#1d1d1b" d="M 88.941406 479.9375 L 329.871094 479.9375 L 329.871094 629.394531 L 88.941406 629.394531 Z M 88.941406 479.9375 " fill-opacity="1" fill-rule="nonzero"/></g><path stroke-linecap="butt" transform="matrix(0.744941, 0, 0, 0.744512, 117.788172, 297.099233)" fill-opacity="1" fill="#ff4518" fill-rule="evenodd" stroke-linejoin="miter" d="M 4.998446 4.99801 L 885.002154 4.99801 L 885.002154 404.997767 L 4.998446 404.997767 Z M 4.998446 4.99801 " stroke="#1d1d1b" stroke-width="6" stroke-opacity="1" stroke-miterlimit="100"/><path stroke-linecap="butt" transform="matrix(0.744941, 0, 0, 0.744512, 117.788172, 297.099233)" fill="none" stroke-linejoin="miter" d="M 4.998446 85.00006 L 885.002154 85.00006 " stroke="#1d1d1b" stroke-width="6" stroke-opacity="1" stroke-miterlimit="100"/><path fill="#1d1d1b" d="M 151.308594 323.15625 C 147.214844 323.15625 143.859375 326.507812 143.859375 330.601562 C 143.859375 334.695312 147.214844 338.046875 151.308594 338.046875 C 155.40625 338.046875 158.761719 334.695312 158.761719 330.601562 C 158.761719 326.507812 155.40625 323.15625 151.308594 323.15625 Z M 151.308594 323.15625 " fill-opacity="1" fill-rule="evenodd"/><g clip-path="url(#238cc4ca49)"><path stroke-linecap="butt" transform="matrix(0.744941, 0, 0, 0.744512, 117.788172, 297.099233)" fill="none" stroke-linejoin="miter" d="M 44.997422 34.998779 C 39.50202 34.998779 34.997678 39.500468 34.997678 44.999035 C 34.997678 50.497602 39.50202 54.999292 44.997422 54.999292 C 50.498068 54.999292 55.00241 50.497602 55.00241 44.999035 C 55.00241 39.500468 50.498068 34.998779 44.997422 34.998779 Z M 44.997422 34.998779 " stroke="#1d1d1b" stroke-width="6" stroke-opacity="1" stroke-miterlimit="100"/></g><path fill="#1d1d1b" d="M 181.109375 323.15625 C 177.011719 323.15625 173.660156 326.507812 173.660156 330.601562 C 173.660156 334.695312 177.011719 338.046875 181.109375 338.046875 C 185.207031 338.046875 188.558594 334.695312 188.558594 330.601562 C 188.558594 326.507812 185.207031 323.15625 181.109375 323.15625 Z M 181.109375 323.15625 " fill-opacity="1" fill-rule="evenodd"/><g clip-path="url(#79d57537f2)"><path stroke-linecap="butt" transform="matrix(0.744941, 0, 0, 0.744512, 117.788172, 297.099233)" fill="none" stroke-linejoin="miter" d="M 85.001643 34.998779 C 79.500997 34.998779 75.001899 39.500468 75.001899 44.999035 C 75.001899 50.497602 79.500997 54.999292 85.001643 54.999292 C 90.502289 54.999292 95.001387 50.497602 95.001387 44.999035 C 95.001387 39.500468 90.502289 34.998779 85.001643 34.998779 Z M 85.001643 34.998779 " stroke="#1d1d1b" stroke-width="6" stroke-opacity="1" stroke-miterlimit="100"/></g><path fill="#1d1d1b" d="M 210.90625 323.15625 C 206.808594 323.15625 203.457031 326.507812 203.457031 330.601562 C 203.457031 334.695312 206.808594 338.046875 210.90625 338.046875 C 215.003906 338.046875 218.355469 334.695312 218.355469 330.601562 C 218.355469 326.507812 215.003906 323.15625 210.90625 323.15625 Z M 210.90625 323.15625 " fill-opacity="1" fill-rule="evenodd"/><g clip-path="url(#a218881634)"><path stroke-linecap="butt" transform="matrix(0.744941, 0, 0, 0.744512, 117.788172, 297.099233)" fill="none" stroke-linejoin="miter" d="M 125.00062 34.998779 C 119.499974 34.998779 115.000876 39.500468 115.000876 44.999035 C 115.000876 50.497602 119.499974 54.999292 125.00062 54.999292 C 130.501266 54.999292 135.000364 50.497602 135.000364 44.999035 C 135.000364 39.500468 130.501266 34.998779 125.00062 34.998779 Z M 125.00062 34.998779 " stroke="#1d1d1b" stroke-width="6" stroke-opacity="1" stroke-miterlimit="100"/></g><g fill="#1d1d1b" fill-opacity="1"><g transform="translate(253.503697, 450.442116)"><g><path d="M 44.578125 -44.1875 C 44.523438 -43.78125 44.359375 -43.445312 44.078125 -43.1875 C 43.796875 -42.9375 43.453125 -42.8125 43.046875 -42.8125 L 20.25 -42.8125 C 20.144531 -42.8125 20.03125 -42.757812 19.90625 -42.65625 C 19.78125 -42.550781 19.71875 -42.421875 19.71875 -42.265625 L 18.5625 -33.140625 C 18.5625 -32.785156 18.71875 -32.609375 19.03125 -32.609375 L 33.375 -32.609375 C 33.78125 -32.609375 34.097656 -32.476562 34.328125 -32.21875 C 34.554688 -31.96875 34.644531 -31.632812 34.59375 -31.21875 L 33.609375 -23.171875 C 33.453125 -22.242188 32.9375 -21.78125 32.0625 -21.78125 L 17.71875 -21.78125 C 17.414062 -21.78125 17.210938 -21.601562 17.109375 -21.25 L 15.875 -11.4375 C 15.875 -11.070312 16.03125 -10.890625 16.34375 -10.890625 L 39.125 -10.890625 C 39.53125 -10.890625 39.835938 -10.757812 40.046875 -10.5 C 40.253906 -10.25 40.332031 -9.921875 40.28125 -9.515625 L 39.28125 -1.375 C 39.226562 -0.96875 39.070312 -0.632812 38.8125 -0.375 C 38.5625 -0.125 38.234375 0 37.828125 0 L 3.53125 0 C 3.125 0 2.800781 -0.125 2.5625 -0.375 C 2.332031 -0.632812 2.242188 -0.96875 2.296875 -1.375 L 8.59375 -52.328125 C 8.644531 -52.734375 8.8125 -53.0625 9.09375 -53.3125 C 9.375 -53.570312 9.71875 -53.703125 10.125 -53.703125 L 44.421875 -53.703125 C 44.828125 -53.703125 45.128906 -53.570312 45.328125 -53.3125 C 45.535156 -53.0625 45.617188 -52.734375 45.578125 -52.328125 Z M 44.578125 -44.1875 "/></g></g></g><g fill="#1d1d1b" fill-opacity="1"><g transform="translate(296.468363, 450.442116)"><g><path d="M 30.453125 0 C 29.691406 0 29.207031 -0.359375 29 -1.078125 L 22.78125 -21.015625 C 22.78125 -21.273438 22.601562 -21.40625 22.25 -21.40625 L 17.640625 -21.40625 C 17.285156 -21.40625 17.109375 -21.226562 17.109375 -20.875 L 14.65625 -1.375 C 14.601562 -0.96875 14.445312 -0.632812 14.1875 -0.375 C 13.9375 -0.125 13.609375 0 13.203125 0 L 3.53125 0 C 3.125 0 2.800781 -0.125 2.5625 -0.375 C 2.332031 -0.632812 2.242188 -0.96875 2.296875 -1.375 L 8.59375 -52.328125 C 8.644531 -52.734375 8.8125 -53.0625 9.09375 -53.3125 C 9.375 -53.570312 9.71875 -53.703125 10.125 -53.703125 L 31.765625 -53.703125 C 36.265625 -53.703125 39.816406 -52.421875 42.421875 -49.859375 C 45.035156 -47.304688 46.34375 -43.859375 46.34375 -39.515625 C 46.34375 -39.003906 46.289062 -38.1875 46.1875 -37.0625 C 45.78125 -33.675781 44.601562 -30.726562 42.65625 -28.21875 C 40.707031 -25.71875 38.226562 -23.90625 35.21875 -22.78125 C 34.90625 -22.632812 34.773438 -22.378906 34.828125 -22.015625 L 41.890625 -1.609375 C 41.941406 -1.503906 41.96875 -1.351562 41.96875 -1.15625 C 41.96875 -0.789062 41.851562 -0.503906 41.625 -0.296875 C 41.394531 -0.0976562 41.070312 0 40.65625 0 Z M 20.25 -42.8125 C 20.144531 -42.8125 20.03125 -42.757812 19.90625 -42.65625 C 19.78125 -42.550781 19.71875 -42.421875 19.71875 -42.265625 L 18.40625 -31.6875 L 18.40625 -31.53125 C 18.40625 -31.269531 18.5625 -31.140625 18.875 -31.140625 L 27 -31.140625 C 29 -31.140625 30.648438 -31.753906 31.953125 -32.984375 C 33.253906 -34.210938 33.90625 -35.828125 33.90625 -37.828125 C 33.90625 -39.359375 33.40625 -40.570312 32.40625 -41.46875 C 31.414062 -42.363281 30.078125 -42.8125 28.390625 -42.8125 Z M 20.25 -42.8125 "/></g></g></g><g fill="#1d1d1b" fill-opacity="1"><g transform="translate(342.195049, 450.442116)"><g><path d="M 30.453125 0 C 29.691406 0 29.207031 -0.359375 29 -1.078125 L 22.78125 -21.015625 C 22.78125 -21.273438 22.601562 -21.40625 22.25 -21.40625 L 17.640625 -21.40625 C 17.285156 -21.40625 17.109375 -21.226562 17.109375 -20.875 L 14.65625 -1.375 C 14.601562 -0.96875 14.445312 -0.632812 14.1875 -0.375 C 13.9375 -0.125 13.609375 0 13.203125 0 L 3.53125 0 C 3.125 0 2.800781 -0.125 2.5625 -0.375 C 2.332031 -0.632812 2.242188 -0.96875 2.296875 -1.375 L 8.59375 -52.328125 C 8.644531 -52.734375 8.8125 -53.0625 9.09375 -53.3125 C 9.375 -53.570312 9.71875 -53.703125 10.125 -53.703125 L 31.765625 -53.703125 C 36.265625 -53.703125 39.816406 -52.421875 42.421875 -49.859375 C 45.035156 -47.304688 46.34375 -43.859375 46.34375 -39.515625 C 46.34375 -39.003906 46.289062 -38.1875 46.1875 -37.0625 C 45.78125 -33.675781 44.601562 -30.726562 42.65625 -28.21875 C 40.707031 -25.71875 38.226562 -23.90625 35.21875 -22.78125 C 34.90625 -22.632812 34.773438 -22.378906 34.828125 -22.015625 L 41.890625 -1.609375 C 41.941406 -1.503906 41.96875 -1.351562 41.96875 -1.15625 C 41.96875 -0.789062 41.851562 -0.503906 41.625 -0.296875 C 41.394531 -0.0976562 41.070312 0 40.65625 0 Z M 20.25 -42.8125 C 20.144531 -42.8125 20.03125 -42.757812 19.90625 -42.65625 C 19.78125 -42.550781 19.71875 -42.421875 19.71875 -42.265625 L 18.40625 -31.6875 L 18.40625 -31.53125 C 18.40625 -31.269531 18.5625 -31.140625 18.875 -31.140625 L 27 -31.140625 C 29 -31.140625 30.648438 -31.753906 31.953125 -32.984375 C 33.253906 -34.210938 33.90625 -35.828125 33.90625 -37.828125 C 33.90625 -39.359375 33.40625 -40.570312 32.40625 -41.46875 C 31.414062 -42.363281 30.078125 -42.8125 28.390625 -42.8125 Z M 20.25 -42.8125 "/></g></g></g><g fill="#1d1d1b" fill-opacity="1"><g transform="translate(387.921736, 450.442116)"><g><path d="M 21.484375 0.84375 C 15.960938 0.84375 11.585938 -0.6875 8.359375 -3.75 C 5.140625 -6.820312 3.53125 -10.96875 3.53125 -16.1875 C 3.53125 -17.46875 3.582031 -18.46875 3.6875 -19.1875 L 5.59375 -34.53125 C 6.0625 -38.414062 7.328125 -41.851562 9.390625 -44.84375 C 11.460938 -47.832031 14.125 -50.15625 17.375 -51.8125 C 20.625 -53.476562 24.242188 -54.3125 28.234375 -54.3125 C 31.910156 -54.3125 35.101562 -53.617188 37.8125 -52.234375 C 40.53125 -50.859375 42.617188 -48.90625 44.078125 -46.375 C 45.535156 -43.84375 46.265625 -40.890625 46.265625 -37.515625 C 46.265625 -36.179688 46.210938 -35.1875 46.109375 -34.53125 L 44.265625 -19.1875 C 43.804688 -15.195312 42.539062 -11.691406 40.46875 -8.671875 C 38.394531 -5.648438 35.722656 -3.304688 32.453125 -1.640625 C 29.179688 0.015625 25.523438 0.84375 21.484375 0.84375 Z M 22.78125 -10.046875 C 25.1875 -10.046875 27.21875 -10.851562 28.875 -12.46875 C 30.539062 -14.082031 31.53125 -16.191406 31.84375 -18.796875 L 33.828125 -34.671875 C 33.878906 -34.984375 33.90625 -35.445312 33.90625 -36.0625 C 33.90625 -38.3125 33.28125 -40.097656 32.03125 -41.421875 C 30.78125 -42.753906 29.078125 -43.421875 26.921875 -43.421875 C 24.578125 -43.421875 22.570312 -42.613281 20.90625 -41 C 19.238281 -39.394531 18.253906 -37.285156 17.953125 -34.671875 L 16.03125 -18.796875 C 15.976562 -18.441406 15.953125 -17.929688 15.953125 -17.265625 C 15.953125 -15.015625 16.566406 -13.25 17.796875 -11.96875 C 19.023438 -10.6875 20.6875 -10.046875 22.78125 -10.046875 Z M 22.78125 -10.046875 "/></g></g></g><g fill="#1d1d1b" fill-opacity="1"><g transform="translate(434.108749, 450.442116)"><g><path d="M 30.453125 0 C 29.691406 0 29.207031 -0.359375 29 -1.078125 L 22.78125 -21.015625 C 22.78125 -21.273438 22.601562 -21.40625 22.25 -21.40625 L 17.640625 -21.40625 C 17.285156 -21.40625 17.109375 -21.226562 17.109375 -20.875 L 14.65625 -1.375 C 14.601562 -0.96875 14.445312 -0.632812 14.1875 -0.375 C 13.9375 -0.125 13.609375 0 13.203125 0 L 3.53125 0 C 3.125 0 2.800781 -0.125 2.5625 -0.375 C 2.332031 -0.632812 2.242188 -0.96875 2.296875 -1.375 L 8.59375 -52.328125 C 8.644531 -52.734375 8.8125 -53.0625 9.09375 -53.3125 C 9.375 -53.570312 9.71875 -53.703125 10.125 -53.703125 L 31.765625 -53.703125 C 36.265625 -53.703125 39.816406 -52.421875 42.421875 -49.859375 C 45.035156 -47.304688 46.34375 -43.859375 46.34375 -39.515625 C 46.34375 -39.003906 46.289062 -38.1875 46.1875 -37.0625 C 45.78125 -33.675781 44.601562 -30.726562 42.65625 -28.21875 C 40.707031 -25.71875 38.226562 -23.90625 35.21875 -22.78125 C 34.90625 -22.632812 34.773438 -22.378906 34.828125 -22.015625 L 41.890625 -1.609375 C 41.941406 -1.503906 41.96875 -1.351562 41.96875 -1.15625 C 41.96875 -0.789062 41.851562 -0.503906 41.625 -0.296875 C 41.394531 -0.0976562 41.070312 0 40.65625 0 Z M 20.25 -42.8125 C 20.144531 -42.8125 20.03125 -42.757812 19.90625 -42.65625 C 19.78125 -42.550781 19.71875 -42.421875 19.71875 -42.265625 L 18.40625 -31.6875 L 18.40625 -31.53125 C 18.40625 -31.269531 18.5625 -31.140625 18.875 -31.140625 L 27 -31.140625 C 29 -31.140625 30.648438 -31.753906 31.953125 -32.984375 C 33.253906 -34.210938 33.90625 -35.828125 33.90625 -37.828125 C 33.90625 -39.359375 33.40625 -40.570312 32.40625 -41.46875 C 31.414062 -42.363281 30.078125 -42.8125 28.390625 -42.8125 Z M 20.25 -42.8125 "/></g></g></g><g fill="#1d1d1b" fill-opacity="1"><g transform="translate(260.335728, 557.69211)"><g><path d="M 3.53125 0 C 3.125 0 2.800781 -0.125 2.5625 -0.375 C 2.332031 -0.632812 2.242188 -0.96875 2.296875 -1.375 L 8.59375 -52.328125 C 8.644531 -52.734375 8.8125 -53.0625 9.09375 -53.3125 C 9.375 -53.570312 9.71875 -53.703125 10.125 -53.703125 L 19.796875 -53.703125 C 20.203125 -53.703125 20.503906 -53.570312 20.703125 -53.3125 C 20.910156 -53.0625 20.988281 -52.734375 20.9375 -52.328125 L 14.65625 -1.375 C 14.601562 -0.96875 14.445312 -0.632812 14.1875 -0.375 C 13.9375 -0.125 13.609375 0 13.203125 0 Z M 3.53125 0 "/></g></g></g><g fill="#1d1d1b" fill-opacity="1"><g transform="translate(280.05344, 557.69211)"><g><path d="M 3.609375 0 C 3.191406 0 2.867188 -0.125 2.640625 -0.375 C 2.410156 -0.632812 2.320312 -0.96875 2.375 -1.375 L 8.671875 -52.328125 C 8.722656 -52.734375 8.890625 -53.0625 9.171875 -53.3125 C 9.453125 -53.570312 9.796875 -53.703125 10.203125 -53.703125 L 19.796875 -53.703125 C 20.515625 -53.703125 21 -53.394531 21.25 -52.78125 L 29.078125 -36.28125 C 29.285156 -35.976562 29.539062 -35.976562 29.84375 -36.28125 L 41.8125 -52.78125 C 42.21875 -53.394531 42.78125 -53.703125 43.5 -53.703125 L 53.09375 -53.703125 C 53.5 -53.703125 53.800781 -53.570312 54 -53.3125 C 54.207031 -53.0625 54.285156 -52.734375 54.234375 -52.328125 L 48.03125 -1.375 C 47.976562 -0.96875 47.8125 -0.632812 47.53125 -0.375 C 47.25 -0.125 46.898438 0 46.484375 0 L 36.828125 0 C 35.953125 0 35.566406 -0.457031 35.671875 -1.375 L 39.359375 -31.375 L 39.359375 -31.53125 C 39.359375 -31.738281 39.289062 -31.84375 39.15625 -31.84375 C 39.03125 -31.84375 38.894531 -31.738281 38.75 -31.53125 L 31.53125 -21.40625 C 31.125 -20.789062 30.5625 -20.484375 29.84375 -20.484375 L 25.3125 -20.484375 C 24.550781 -20.484375 24.066406 -20.789062 23.859375 -21.40625 L 19.03125 -31.53125 C 18.925781 -31.789062 18.804688 -31.894531 18.671875 -31.84375 C 18.546875 -31.789062 18.457031 -31.632812 18.40625 -31.375 L 14.734375 -1.375 C 14.679688 -0.96875 14.523438 -0.632812 14.265625 -0.375 C 14.015625 -0.125 13.679688 0 13.265625 0 Z M 3.609375 0 "/></g></g></g><g fill="#1d1d1b" fill-opacity="1"><g transform="translate(333.145497, 557.69211)"><g><path d="M 36.515625 0 C 35.703125 0 35.269531 -0.382812 35.21875 -1.15625 L 34.21875 -7.4375 C 34.21875 -7.75 34.035156 -7.90625 33.671875 -7.90625 L 16.875 -7.90625 C 16.570312 -7.90625 16.367188 -7.75 16.265625 -7.4375 L 13.734375 -1.15625 C 13.472656 -0.382812 12.9375 0 12.125 0 L 1.609375 0 C 0.890625 0 0.53125 -0.304688 0.53125 -0.921875 L 0.6875 -1.53125 L 22.625 -52.546875 C 22.9375 -53.316406 23.5 -53.703125 24.3125 -53.703125 L 37.4375 -53.703125 C 38.257812 -53.703125 38.742188 -53.316406 38.890625 -52.546875 L 48.328125 -1.53125 L 48.328125 -1.234375 C 48.328125 -0.410156 47.894531 0 47.03125 0 Z M 20.640625 -18.328125 C 20.535156 -18.179688 20.519531 -18.039062 20.59375 -17.90625 C 20.675781 -17.78125 20.816406 -17.71875 21.015625 -17.71875 L 31.984375 -17.71875 C 32.191406 -17.71875 32.347656 -17.78125 32.453125 -17.90625 C 32.554688 -18.039062 32.582031 -18.179688 32.53125 -18.328125 L 29.390625 -38.75 C 29.335938 -39 29.242188 -39.125 29.109375 -39.125 C 28.984375 -39.125 28.867188 -39 28.765625 -38.75 Z M 20.640625 -18.328125 "/></g></g></g><g fill="#1d1d1b" fill-opacity="1"><g transform="translate(384.779817, 557.69211)"><g><path d="M 21.171875 0.609375 C 15.753906 0.609375 11.457031 -0.894531 8.28125 -3.90625 C 5.113281 -6.925781 3.53125 -10.96875 3.53125 -16.03125 C 3.53125 -17.363281 3.582031 -18.363281 3.6875 -19.03125 L 5.59375 -34.75 C 6.0625 -38.632812 7.304688 -42.046875 9.328125 -44.984375 C 11.347656 -47.929688 13.96875 -50.222656 17.1875 -51.859375 C 20.40625 -53.492188 23.984375 -54.3125 27.921875 -54.3125 C 31.554688 -54.3125 34.726562 -53.632812 37.4375 -52.28125 C 40.144531 -50.925781 42.226562 -49.070312 43.6875 -46.71875 C 45.144531 -44.363281 45.875 -41.726562 45.875 -38.8125 C 45.875 -38.351562 45.820312 -37.613281 45.71875 -36.59375 C 45.664062 -36.1875 45.5 -35.867188 45.21875 -35.640625 C 44.9375 -35.410156 44.59375 -35.296875 44.1875 -35.296875 L 34.53125 -35.296875 C 33.65625 -35.296875 33.242188 -35.445312 33.296875 -35.75 L 33.296875 -36.21875 C 33.347656 -36.414062 33.375 -36.71875 33.375 -37.125 C 33.375 -38.914062 32.785156 -40.410156 31.609375 -41.609375 C 30.429688 -42.816406 28.769531 -43.421875 26.625 -43.421875 C 24.375 -43.421875 22.453125 -42.648438 20.859375 -41.109375 C 19.273438 -39.578125 18.332031 -37.585938 18.03125 -35.140625 L 15.953125 -18.640625 C 15.898438 -18.390625 15.875 -17.984375 15.875 -17.421875 C 15.875 -15.316406 16.550781 -13.613281 17.90625 -12.3125 C 19.269531 -11.007812 21 -10.359375 23.09375 -10.359375 C 25.289062 -10.359375 27.128906 -10.957031 28.609375 -12.15625 C 30.097656 -13.363281 30.96875 -15.039062 31.21875 -17.1875 L 31.453125 -19.1875 C 31.453125 -19.539062 31.300781 -19.71875 31 -19.71875 L 24.171875 -19.71875 C 23.753906 -19.71875 23.441406 -19.84375 23.234375 -20.09375 C 23.035156 -20.351562 22.960938 -20.6875 23.015625 -21.09375 L 23.9375 -28.609375 C 23.988281 -29.023438 24.140625 -29.359375 24.390625 -29.609375 C 24.648438 -29.867188 24.984375 -30 25.390625 -30 L 43.578125 -30 C 43.984375 -30 44.285156 -29.867188 44.484375 -29.609375 C 44.691406 -29.359375 44.773438 -29.023438 44.734375 -28.609375 L 43.5 -18.640625 C 43.039062 -14.804688 41.8125 -11.429688 39.8125 -8.515625 C 37.820312 -5.597656 35.210938 -3.347656 31.984375 -1.765625 C 28.765625 -0.179688 25.160156 0.609375 21.171875 0.609375 Z M 21.171875 0.609375 "/></g></g></g><g fill="#1d1d1b" fill-opacity="1"><g transform="translate(430.046165, 557.69211)"><g><path d="M 44.578125 -44.1875 C 44.523438 -43.78125 44.359375 -43.445312 44.078125 -43.1875 C 43.796875 -42.9375 43.453125 -42.8125 43.046875 -42.8125 L 20.25 -42.8125 C 20.144531 -42.8125 20.03125 -42.757812 19.90625 -42.65625 C 19.78125 -42.550781 19.71875 -42.421875 19.71875 -42.265625 L 18.5625 -33.140625 C 18.5625 -32.785156 18.71875 -32.609375 19.03125 -32.609375 L 33.375 -32.609375 C 33.78125 -32.609375 34.097656 -32.476562 34.328125 -32.21875 C 34.554688 -31.96875 34.644531 -31.632812 34.59375 -31.21875 L 33.609375 -23.171875 C 33.453125 -22.242188 32.9375 -21.78125 32.0625 -21.78125 L 17.71875 -21.78125 C 17.414062 -21.78125 17.210938 -21.601562 17.109375 -21.25 L 15.875 -11.4375 C 15.875 -11.070312 16.03125 -10.890625 16.34375 -10.890625 L 39.125 -10.890625 C 39.53125 -10.890625 39.835938 -10.757812 40.046875 -10.5 C 40.253906 -10.25 40.332031 -9.921875 40.28125 -9.515625 L 39.28125 -1.375 C 39.226562 -0.96875 39.070312 -0.632812 38.8125 -0.375 C 38.5625 -0.125 38.234375 0 37.828125 0 L 3.53125 0 C 3.125 0 2.800781 -0.125 2.5625 -0.375 C 2.332031 -0.632812 2.242188 -0.96875 2.296875 -1.375 L 8.59375 -52.328125 C 8.644531 -52.734375 8.8125 -53.0625 9.09375 -53.3125 C 9.375 -53.570312 9.71875 -53.703125 10.125 -53.703125 L 44.421875 -53.703125 C 44.828125 -53.703125 45.128906 -53.570312 45.328125 -53.3125 C 45.535156 -53.0625 45.617188 -52.734375 45.578125 -52.328125 Z M 44.578125 -44.1875 "/></g></g></g><g clip-path="url(#d03a728636)"><path fill="#1d1d1b" d="M 699.84375 499.640625 L 677.183594 476.980469 L 694.179688 460.050781 L 637.59375 448.71875 L 648.921875 505.304688 L 665.855469 488.3125 L 688.515625 510.96875 Z M 699.84375 499.640625 " fill-opacity="1" fill-rule="evenodd"/></g><g clip-path="url(#ecf73fea7e)"><g clip-path="url(#5ca88fe72b)"><path fill="#1d1d1b" d="M 528.183594 708.246094 L 550.925781 708.246094 L 550.925781 730.988281 L 528.183594 730.988281 Z M 528.183594 708.246094 " fill-opacity="1" fill-rule="nonzero"/></g></g><g clip-path="url(#d18d492ca0)"><g clip-path="url(#465ebb44c0)"><path fill="#1d1d1b" d="M 708.9375 168.734375 L 731.679688 168.734375 L 731.679688 191.476562 L 708.9375 191.476562 Z M 708.9375 168.734375 " fill-opacity="1" fill-rule="nonzero"/></g></g><g clip-path="url(#457228af75)"><g clip-path="url(#818879f04b)"><path fill="#1d1d1b" d="M 258.859375 78.304688 L 281.601562 78.304688 L 281.601562 101.046875 L 258.859375 101.046875 Z M 258.859375 78.304688 " fill-opacity="1" fill-rule="nonzero"/></g></g><g clip-path="url(#2b11f10dda)"><g clip-path="url(#f486690dc1)"><path fill="#1d1d1b" d="M 78.777344 258.855469 L 101.519531 258.855469 L 101.519531 281.597656 L 78.777344 281.597656 Z M 78.777344 258.855469 " fill-opacity="1" fill-rule="nonzero"/></g></g></svg>